HIERARCHY
ROOT Hips
{
	OFFSET 0.000000 0.000000 0.000000
	CHANNELS 6 Xposition Yposition Zposition Yrotation Xrotation Zrotation
	JOINT Chest
	{
		OFFSET 0.000000 -0.009281 11.569106
		CHANNELS 3 Yrotation Xrotation Zrotation
		JOINT Chest2
		{
			OFFSET -0.000000 0.016865 9.269641
			CHANNELS 3 Yrotation Xrotation Zrotation
			JOINT Chest3
			{
				OFFSET -0.000000 0.000001 8.374491
				CHANNELS 3 Yrotation Xrotation Zrotation
				JOINT Chest4
				{
					OFFSET -0.000000 0.000001 8.374493
					CHANNELS 3 Yrotation Xrotation Zrotation
					JOINT Neck
					{
						OFFSET -0.000000 0.000002 12.152554
						CHANNELS 3 Yrotation Xrotation Zrotation
						JOINT Head
						{
							OFFSET -0.000000 0.040101 7.802319
							CHANNELS 3 Yrotation Xrotation Zrotation
							End Site
							{
								OFFSET -0.000000 0.020947 14.853096
							}
						}
					}
					JOINT RightCollar
					{
						OFFSET 2.894404 0.000001 6.791374
						CHANNELS 3 Yrotation Xrotation Zrotation
						JOINT RightShoulder
						{
							OFFSET 13.574684 0.000001 0.000000
							CHANNELS 3 Yrotation Xrotation Zrotation
							JOINT RightElbow
							{
								OFFSET 23.923903 0.000002 0.000000
								CHANNELS 3 Yrotation Xrotation Zrotation
								JOINT RightWrist
								{
									OFFSET 19.846718 0.012767 0.000000
									CHANNELS 3 Yrotation Xrotation Zrotation
									End Site
									{
										OFFSET 14.973145 0.000001 0.000000
									}
								}
							}
						}
					}
					JOINT LeftCollar
					{
						OFFSET -2.894404 0.000001 6.791374
						CHANNELS 3 Yrotation Xrotation Zrotation
						JOINT LeftShoulder
						{
							OFFSET -13.574684 -0.000001 0.000000
							CHANNELS 3 Yrotation Xrotation Zrotation
							JOINT LeftElbow
							{
								OFFSET -23.923903 -0.000002 0.000000
								CHANNELS 3 Yrotation Xrotation Zrotation
								JOINT LeftWrist
								{
									OFFSET -19.846718 0.012763 0.000000
									CHANNELS 3 Yrotation Xrotation Zrotation
									End Site
									{
										OFFSET -14.973145 -0.000001 0.000000
									}
								}
							}
						}
					}
				}
			}
		}
	}
	JOINT RightHip
	{
		OFFSET 9.469263 0.004643 0.045487
		CHANNELS 3 Yrotation Xrotation Zrotation
		JOINT RightKnee
		{
			OFFSET 0.000000 0.002661 -40.478676
			CHANNELS 3 Yrotation Xrotation Zrotation
			JOINT RightAnkle
			{
				OFFSET 0.000000 0.049106 -35.224068
				CHANNELS 3 Yrotation Xrotation Zrotation
				JOINT RightToe
				{
					OFFSET -0.000001 12.539529 -6.151390
					CHANNELS 3 Yrotation Xrotation Zrotation
					End Site
					{
						OFFSET -0.000001 5.044994 -1.291870
					}
				}
			}
		}
	}
	JOINT LeftHip
	{
		OFFSET -9.469263 0.004641 0.045487
		CHANNELS 3 Yrotation Xrotation Zrotation
		JOINT LeftKnee
		{
			OFFSET 0.000000 0.002661 -40.478676
			CHANNELS 3 Yrotation Xrotation Zrotation
			JOINT LeftAnkle
			{
				OFFSET 0.000000 0.049106 -35.224068
				CHANNELS 3 Yrotation Xrotation Zrotation
				JOINT LeftToe
				{
					OFFSET -0.000001 12.539529 -6.151390
					CHANNELS 3 Yrotation Xrotation Zrotation
					End Site
					{
						OFFSET -0.000001 5.044994 -1.291870
					}
				}
			}
		}
	}
}
MOTION
Frames: 8
Frame Time: 0.016667
-17.776855 32.224705 82.241341 -3.380496 2.805339 -99.972994 -2.357844 -3.440355 0.736428 -1.126251 -1.587265 0.271855 -1.126251 -1.587265 0.271854 -0.843928 -1.190955 0.200952 3.795454 -21.317435 -6.121489 5.112879 -3.343552 -10.000068 9.030669 0.247385 -2.667106 47.676858 -18.390879 -6.694778 18.691079 -34.918806 42.103520 -25.067441 37.745876 68.371403 -7.934165 4.306596 -4.043179 -42.946348 -1.580564 14.595564 -29.654171 -55.865808 -25.628420 13.266159 7.377886 -53.444185 -1.949873 4.742939 -21.781495 6.079812 -15.455362 -12.766622 5.193917 10.362837 17.533065 1.259795 1.124475 0.192612 2.694573 13.152113 1.072827 -1.030602 -2.144687 8.964331 3.587246 -10.192436 6.449371 -3.623265 -1.613824 0.107755 
-18.060938 32.109074 82.251419 -3.464972 2.953220 -99.835106 -2.422423 -3.370704 0.738698 -1.160949 -1.568330 0.263552 -1.160950 -1.568330 0.263554 -0.869982 -1.176753 0.194674 3.832393 -21.355674 -6.165402 5.169200 -3.413102 -10.069165 9.029030 0.211314 -2.687901 47.725172 -18.409769 -6.650817 18.636811 -34.890826 42.001801 -25.058388 37.717712 68.362394 -7.958301 4.295173 -4.056662 -42.883346 -1.613843 14.621953 -29.721537 -55.893460 -25.544960 13.190333 7.474307 -53.544858 -1.929369 5.010293 -20.803832 6.218422 -15.519356 -13.059924 4.199099 10.197599 16.623728 1.471351 1.167064 0.205354 3.140204 12.523819 1.372807 -0.968535 -2.212292 8.519354 3.674033 -9.646773 6.408974 -3.583766 -1.395010 0.102836 
-18.327433 32.046886 82.265709 -3.595892 3.157539 -99.649516 -2.559540 -3.350210 0.709410 -1.190289 -1.542870 0.260145 -1.190289 -1.542870 0.260144 -0.892006 -1.157664 0.192091 3.851958 -21.395501 -6.214125 5.192805 -3.486486 -10.152041 9.035869 0.173598 -2.703543 47.788826 -18.398125 -6.648577 18.577599 -34.871131 41.908904 -25.038147 37.674497 68.363247 -7.993121 4.259135 -4.092314 -42.826195 -1.662744 14.669238 -29.780362 -55.901704 -25.447512 13.095759 7.648847 -53.675072 -2.129480 5.243205 -20.105594 6.459844 -15.733617 -13.537023 3.518854 10.047681 16.215158 1.457219 1.172555 0.156953 3.480243 11.880285 1.630574 -0.916478 -2.389957 8.002976 3.790276 -9.142248 6.482457 -3.565367 -1.108690 0.104253 
-18.542711 32.013973 82.280472 -3.730891 3.328081 -99.459985 -2.674425 -3.348176 0.666272 -1.203770 -1.510366 0.265298 -1.203770 -1.510366 0.265297 -0.902120 -1.133303 0.195988 3.842265 -21.442219 -6.262536 5.163984 -3.574145 -10.242820 9.030793 0.102403 -2.696803 47.831521 -18.349112 -6.645433 18.502842 -34.880642 41.849833 -25.005206 37.659242 68.377659 -8.021024 4.217483 -4.074721 -42.797607 -1.728482 14.695594 -29.887333 -55.891916 -25.285493 13.042872 7.823092 -53.757072 -2.392724 5.390675 -19.977101 6.653761 -16.008177 -13.745770 3.118802 9.956512 16.141378 1.300112 1.109331 0.097969 3.810593 11.261630 1.836900 -0.844078 -2.711050 7.532200 3.925077 -8.610781 6.506812 -3.563469 -0.802307 0.107161 
-18.709005 31.988707 82.293175 -3.836763 3.421301 -99.312050 -2.719672 -3.333597 0.657125 -1.203599 -1.483712 0.279185 -1.203599 -1.483712 0.279185 -0.901971 -1.113340 0.206453 3.811702 -21.475402 -6.310669 5.096803 -3.637820 -10.339018 9.015189 0.052680 -2.681847 47.840947 -18.337313 -6.646828 18.424447 -34.890181 41.833041 -24.970002 37.671348 68.400697 -8.012135 4.188213 -4.029209 -42.807487 -1.752245 14.711399 -30.070786 -55.868878 -25.076302 13.006718 7.905311 -53.718488 -2.571822 5.447194 -20.301093 6.731183 -16.201311 -13.494831 2.876972 9.897441 16.143265 1.081274 0.972453 0.049831 4.189630 10.652436 2.040148 -0.750893 -3.076140 7.140262 4.083861 -8.089720 6.440396 -3.567441 -0.496092 0.108416 
-18.814281 31.979870 82.306259 -3.953718 3.480512 -99.171922 -2.739086 -3.343966 0.658108 -1.198283 -1.471869 0.294115 -1.198283 -1.471869 0.294114 -0.897956 -1.104484 0.217688 3.772106 -21.487176 -6.353558 5.013631 -3.662298 -10.428182 8.997840 0.051441 -2.669902 47.812407 -18.394809 -6.642938 18.388430 -34.872743 41.829684 -24.957870 37.684107 68.415956 -8.007944 4.232289 -4.013439 -42.794161 -1.724804 14.785119 -30.280547 -55.863226 -24.884047 13.015750 7.872067 -53.616500 -2.672856 5.401470 -20.734511 6.699311 -16.282696 -13.146435 2.800013 9.886357 15.992748 0.843336 0.784658 0.004310 4.564325 9.956374 2.255122 -0.634593 -3.376305 6.789393 4.257344 -7.606782 6.381089 -3.561500 -0.212001 0.114048 
-18.900446 31.976309 82.315018 -4.037410 3.523990 -99.037934 -2.742529 -3.335623 0.679215 -1.193146 -1.465864 0.305248 -1.193146 -1.465864 0.305250 -0.894078 -1.099999 0.226064 3.738470 -21.485745 -6.393455 4.941358 -3.662011 -10.510153 8.988591 0.051100 -2.666611 47.749207 -18.467882 -6.599448 18.432787 -34.838790 41.786793 -24.959152 37.685019 68.414323 -8.000348 4.268195 -4.019353 -42.767356 -1.632769 14.857036 -30.407323 -55.930264 -24.780908 13.032204 7.832529 -53.504874 -2.768353 5.378008 -20.978639 6.693060 -16.369078 -13.097432 2.919581 9.913774 16.097718 0.568438 0.581294 -0.014836 4.970342 9.228901 2.488293 -0.542598 -3.648574 6.427789 4.422552 -7.116357 6.321038 -3.537517 0.042866 0.125393 
-18.971178 32.009373 82.312080 -4.099477 3.582215 -98.892738 -2.767697 -3.305702 0.701810 -1.189904 -1.456043 0.312874 -1.189904 -1.456043 0.312875 -0.891635 -1.092647 0.231809 3.719399 -21.487227 -6.433053 4.895687 -3.666395 -10.587396 8.993693 0.039335 -2.685498 47.685809 -18.541508 -6.542216 18.505201 -34.808106 41.724492 -24.965641 37.690227 68.395793 -7.989617 4.243705 -4.044834 -42.748173 -1.529351 14.886143 -30.453775 -55.992566 -24.724098 13.033280 7.809946 -53.446415 -2.911889 5.415393 -21.022687 6.723761 -16.544313 -13.456579 3.337570 10.058977 16.466090 0.215340 0.325184 -0.041492 5.376889 8.503394 2.711889 -0.484876 -3.958179 6.021048 4.588538 -6.597508 6.251702 -3.508210 0.282452 0.140521 
